<svg xmlns="http://www.w3.org/2000/svg" xmlns:xlink="http://www.w3.org/1999/xlink" width="434" zoomAndPan="magnify" viewBox="0 0 325.5 101.999999" height="136" preserveAspectRatio="xMidYMid meet" version="1.0"><defs><g/><clipPath id="e61b4b3495"><path d="M 0 24.183594 L 63.652344 24.183594 L 63.652344 77.351562 L 0 77.351562 Z M 0 24.183594 " clip-rule="nonzero"/></clipPath></defs><g fill="#ffffff" fill-opacity="1"><g transform="translate(76.61267, 65.158042)"><g><path d="M 1.5 -15.96875 C 1.5 -19.113281 2.175781 -21.921875 3.53125 -24.390625 C 4.894531 -26.859375 6.796875 -28.78125 9.234375 -30.15625 C 11.671875 -31.53125 14.429688 -32.21875 17.515625 -32.21875 C 21.296875 -32.21875 24.53125 -31.21875 27.21875 -29.21875 C 29.914062 -27.226562 31.71875 -24.503906 32.625 -21.046875 L 24.09375 -21.046875 C 23.457031 -22.378906 22.554688 -23.394531 21.390625 -24.09375 C 20.222656 -24.789062 18.898438 -25.140625 17.421875 -25.140625 C 15.035156 -25.140625 13.097656 -24.304688 11.609375 -22.640625 C 10.128906 -20.972656 9.390625 -18.75 9.390625 -15.96875 C 9.390625 -13.1875 10.128906 -10.960938 11.609375 -9.296875 C 13.097656 -7.640625 15.035156 -6.8125 17.421875 -6.8125 C 18.898438 -6.8125 20.222656 -7.15625 21.390625 -7.84375 C 22.554688 -8.539062 23.457031 -9.554688 24.09375 -10.890625 L 32.625 -10.890625 C 31.71875 -7.441406 29.914062 -4.722656 27.21875 -2.734375 C 24.53125 -0.753906 21.296875 0.234375 17.515625 0.234375 C 14.429688 0.234375 11.671875 -0.453125 9.234375 -1.828125 C 6.796875 -3.210938 4.894531 -5.128906 3.53125 -7.578125 C 2.175781 -10.023438 1.5 -12.820312 1.5 -15.96875 Z M 1.5 -15.96875 "/></g></g></g><g fill="#ffffff" fill-opacity="1"><g transform="translate(111.17461, 65.158042)"><g><path d="M 10.578125 -33.578125 L 10.578125 0 L 2.8125 0 L 2.8125 -33.578125 Z M 10.578125 -33.578125 "/></g></g></g><g fill="#ffffff" fill-opacity="1"><g transform="translate(124.554894, 65.158042)"><g><path d="M 14.34375 0.359375 C 11.863281 0.359375 9.628906 -0.164062 7.640625 -1.21875 C 5.660156 -2.28125 4.101562 -3.796875 2.96875 -5.765625 C 1.832031 -7.734375 1.265625 -10.03125 1.265625 -12.65625 C 1.265625 -15.257812 1.835938 -17.550781 2.984375 -19.53125 C 4.140625 -21.507812 5.710938 -23.03125 7.703125 -24.09375 C 9.703125 -25.15625 11.941406 -25.6875 14.421875 -25.6875 C 16.910156 -25.6875 19.148438 -25.15625 21.140625 -24.09375 C 23.140625 -23.03125 24.710938 -21.507812 25.859375 -19.53125 C 27.015625 -17.550781 27.59375 -15.257812 27.59375 -12.65625 C 27.59375 -10.050781 27.007812 -7.757812 25.84375 -5.78125 C 24.675781 -3.800781 23.085938 -2.28125 21.078125 -1.21875 C 19.066406 -0.164062 16.820312 0.359375 14.34375 0.359375 Z M 14.34375 -6.359375 C 15.820312 -6.359375 17.082031 -6.898438 18.125 -7.984375 C 19.164062 -9.078125 19.6875 -10.632812 19.6875 -12.65625 C 19.6875 -14.6875 19.179688 -16.242188 18.171875 -17.328125 C 17.160156 -18.421875 15.910156 -18.96875 14.421875 -18.96875 C 12.910156 -18.96875 11.65625 -18.429688 10.65625 -17.359375 C 9.664062 -16.285156 9.171875 -14.71875 9.171875 -12.65625 C 9.171875 -10.632812 9.660156 -9.078125 10.640625 -7.984375 C 11.617188 -6.898438 12.851562 -6.359375 14.34375 -6.359375 Z M 14.34375 -6.359375 "/></g></g></g><g fill="#ffffff" fill-opacity="1"><g transform="translate(153.447225, 65.158042)"><g><path d="M 27.8125 -25.3125 L 27.8125 0 L 20.0625 0 L 20.0625 -3.453125 C 19.269531 -2.328125 18.203125 -1.425781 16.859375 -0.75 C 15.515625 -0.0703125 14.023438 0.265625 12.390625 0.265625 C 10.453125 0.265625 8.738281 -0.160156 7.25 -1.015625 C 5.769531 -1.878906 4.625 -3.128906 3.8125 -4.765625 C 3 -6.398438 2.59375 -8.320312 2.59375 -10.53125 L 2.59375 -25.3125 L 10.296875 -25.3125 L 10.296875 -11.578125 C 10.296875 -9.878906 10.734375 -8.5625 11.609375 -7.625 C 12.492188 -6.6875 13.675781 -6.21875 15.15625 -6.21875 C 16.664062 -6.21875 17.859375 -6.6875 18.734375 -7.625 C 19.617188 -8.5625 20.0625 -9.878906 20.0625 -11.578125 L 20.0625 -25.3125 Z M 27.8125 -25.3125 "/></g></g></g><g fill="#ffffff" fill-opacity="1"><g transform="translate(184.017757, 65.158042)"><g><path d="M 1.265625 -12.703125 C 1.265625 -15.304688 1.753906 -17.585938 2.734375 -19.546875 C 3.722656 -21.515625 5.0625 -23.03125 6.75 -24.09375 C 8.445312 -25.15625 10.34375 -25.6875 12.4375 -25.6875 C 14.09375 -25.6875 15.609375 -25.335938 16.984375 -24.640625 C 18.367188 -23.941406 19.453125 -23.003906 20.234375 -21.828125 L 20.234375 -33.578125 L 28 -33.578125 L 28 0 L 20.234375 0 L 20.234375 -3.625 C 19.503906 -2.414062 18.46875 -1.445312 17.125 -0.71875 C 15.78125 0 14.21875 0.359375 12.4375 0.359375 C 10.34375 0.359375 8.445312 -0.175781 6.75 -1.25 C 5.0625 -2.320312 3.722656 -3.847656 2.734375 -5.828125 C 1.753906 -7.804688 1.265625 -10.097656 1.265625 -12.703125 Z M 20.234375 -12.65625 C 20.234375 -14.59375 19.695312 -16.117188 18.625 -17.234375 C 17.550781 -18.359375 16.242188 -18.921875 14.703125 -18.921875 C 13.160156 -18.921875 11.851562 -18.367188 10.78125 -17.265625 C 9.707031 -16.160156 9.171875 -14.640625 9.171875 -12.703125 C 9.171875 -10.765625 9.707031 -9.226562 10.78125 -8.09375 C 11.851562 -6.957031 13.160156 -6.390625 14.703125 -6.390625 C 16.242188 -6.390625 17.550781 -6.945312 18.625 -8.0625 C 19.695312 -9.1875 20.234375 -10.71875 20.234375 -12.65625 Z M 20.234375 -12.65625 "/></g></g></g><g fill="#ffffff" fill-opacity="1"><g transform="translate(214.815083, 65.158042)"><g><path d="M 22.09375 -16.328125 C 23.9375 -15.941406 25.414062 -15.03125 26.53125 -13.59375 C 27.65625 -12.15625 28.21875 -10.515625 28.21875 -8.671875 C 28.21875 -6.003906 27.285156 -3.890625 25.421875 -2.328125 C 23.566406 -0.773438 20.976562 0 17.65625 0 L 2.8125 0 L 2.8125 -31.859375 L 17.15625 -31.859375 C 20.382812 -31.859375 22.914062 -31.113281 24.75 -29.625 C 26.582031 -28.144531 27.5 -26.132812 27.5 -23.59375 C 27.5 -21.71875 27.003906 -20.160156 26.015625 -18.921875 C 25.035156 -17.679688 23.726562 -16.816406 22.09375 -16.328125 Z M 10.578125 -18.96875 L 15.65625 -18.96875 C 16.925781 -18.96875 17.898438 -19.242188 18.578125 -19.796875 C 19.265625 -20.359375 19.609375 -21.1875 19.609375 -22.28125 C 19.609375 -23.363281 19.265625 -24.191406 18.578125 -24.765625 C 17.898438 -25.347656 16.925781 -25.640625 15.65625 -25.640625 L 10.578125 -25.640625 Z M 16.296875 -6.265625 C 17.585938 -6.265625 18.585938 -6.554688 19.296875 -7.140625 C 20.015625 -7.734375 20.375 -8.585938 20.375 -9.703125 C 20.375 -10.828125 20.003906 -11.707031 19.265625 -12.34375 C 18.523438 -12.976562 17.503906 -13.296875 16.203125 -13.296875 L 10.578125 -13.296875 L 10.578125 -6.265625 Z M 16.296875 -6.265625 "/></g></g></g><g fill="#ffffff" fill-opacity="1"><g transform="translate(244.705259, 65.158042)"><g><path d="M 14.34375 0.359375 C 11.863281 0.359375 9.628906 -0.164062 7.640625 -1.21875 C 5.660156 -2.28125 4.101562 -3.796875 2.96875 -5.765625 C 1.832031 -7.734375 1.265625 -10.03125 1.265625 -12.65625 C 1.265625 -15.257812 1.835938 -17.550781 2.984375 -19.53125 C 4.140625 -21.507812 5.710938 -23.03125 7.703125 -24.09375 C 9.703125 -25.15625 11.941406 -25.6875 14.421875 -25.6875 C 16.910156 -25.6875 19.148438 -25.15625 21.140625 -24.09375 C 23.140625 -23.03125 24.710938 -21.507812 25.859375 -19.53125 C 27.015625 -17.550781 27.59375 -15.257812 27.59375 -12.65625 C 27.59375 -10.050781 27.007812 -7.757812 25.84375 -5.78125 C 24.675781 -3.800781 23.085938 -2.28125 21.078125 -1.21875 C 19.066406 -0.164062 16.820312 0.359375 14.34375 0.359375 Z M 14.34375 -6.359375 C 15.820312 -6.359375 17.082031 -6.898438 18.125 -7.984375 C 19.164062 -9.078125 19.6875 -10.632812 19.6875 -12.65625 C 19.6875 -14.6875 19.179688 -16.242188 18.171875 -17.328125 C 17.160156 -18.421875 15.910156 -18.96875 14.421875 -18.96875 C 12.910156 -18.96875 11.65625 -18.429688 10.65625 -17.359375 C 9.664062 -16.285156 9.171875 -14.71875 9.171875 -12.65625 C 9.171875 -10.632812 9.660156 -9.078125 10.640625 -7.984375 C 11.617188 -6.898438 12.851562 -6.359375 14.34375 -6.359375 Z M 14.34375 -6.359375 "/></g></g></g><g fill="#ffffff" fill-opacity="1"><g transform="translate(273.59759, 65.158042)"><g><path d="M 17.78125 0 L 12.9375 -7.03125 L 8.84375 0 L 0.453125 0 L 8.796875 -12.9375 L 0.234375 -25.3125 L 8.9375 -25.3125 L 13.796875 -18.328125 L 17.875 -25.3125 L 26.265625 -25.3125 L 17.78125 -12.5625 L 26.5 0 Z M 17.78125 0 "/></g></g></g><g clip-path="url(#e61b4b3495)"><path fill="#ffffff" d="M 63.949219 34.566406 C 63.898438 34.21875 63.710938 33.976562 63.386719 33.839844 L 40.601562 24.316406 C 40.261719 24.179688 39.949219 24.226562 39.664062 24.453125 L 31.996094 30.652344 L 24.351562 24.453125 C 24.066406 24.226562 23.757812 24.179688 23.417969 24.316406 L 0.605469 33.839844 C 0.453125 33.902344 0.328125 34 0.226562 34.128906 C 0.128906 34.257812 0.0664062 34.40625 0.0429688 34.570312 C 0.0195312 34.730469 0.0351562 34.890625 0.0976562 35.042969 C 0.15625 35.195312 0.25 35.324219 0.378906 35.429688 L 7.917969 41.53125 L 0.871094 50.746094 C 0.691406 50.984375 0.636719 51.25 0.707031 51.539062 C 0.777344 51.828125 0.953125 52.039062 1.222656 52.164062 L 8.28125 55.398438 L 8.28125 66.089844 C 8.28125 66.492188 8.460938 66.773438 8.824219 66.941406 L 31.546875 77.394531 L 31.601562 77.425781 C 31.632812 77.441406 31.667969 77.453125 31.703125 77.460938 L 31.765625 77.480469 C 31.789062 77.484375 31.8125 77.484375 31.832031 77.480469 L 31.996094 77.480469 C 32.03125 77.484375 32.070312 77.484375 32.105469 77.480469 L 32.15625 77.480469 C 32.179688 77.484375 32.199219 77.484375 32.222656 77.480469 L 32.289062 77.460938 C 32.320312 77.453125 32.355469 77.4375 32.382812 77.425781 L 55.144531 66.949219 C 55.507812 66.78125 55.691406 66.496094 55.691406 66.097656 L 55.691406 55.394531 L 62.765625 52.148438 C 62.890625 52.089844 63 52.007812 63.089844 51.898438 C 63.179688 51.789062 63.238281 51.667969 63.273438 51.53125 C 63.308594 51.394531 63.3125 51.257812 63.285156 51.121094 C 63.257812 50.984375 63.203125 50.859375 63.117188 50.746094 L 56.070312 41.546875 L 63.609375 35.429688 C 63.886719 35.207031 64 34.921875 63.949219 34.566406 Z M 31.996094 50.828125 L 11.542969 41.417969 L 31.996094 32.867188 L 52.449219 41.417969 Z M 23.59375 26.257812 L 30.1875 31.597656 L 29.140625 32.039062 L 9.367188 40.300781 L 2.773438 34.960938 Z M 3.066406 50.9375 L 8.28125 44.132812 L 9.503906 42.539062 L 10.152344 42.847656 L 30.539062 52.21875 L 24.105469 60.617188 L 10.152344 54.195312 L 8.28125 53.335938 Z M 10.152344 56.257812 L 24 62.632812 C 24.125 62.6875 24.257812 62.714844 24.394531 62.71875 C 24.699219 62.71875 24.949219 62.59375 25.136719 62.351562 L 31.058594 54.617188 L 31.058594 75.113281 L 10.152344 65.492188 Z M 53.839844 65.492188 L 32.929688 75.113281 L 32.929688 54.617188 L 38.855469 62.351562 C 39.042969 62.59375 39.289062 62.71875 39.597656 62.71875 C 39.730469 62.714844 39.863281 62.6875 39.984375 62.632812 L 53.839844 56.257812 Z M 60.921875 50.9375 L 55.710938 53.335938 L 53.839844 54.195312 L 39.882812 60.617188 L 33.449219 52.21875 L 54.484375 42.554688 L 55.710938 44.152344 Z M 54.617188 40.300781 L 34.847656 32.039062 L 33.800781 31.601562 L 40.394531 26.257812 L 61.214844 34.960938 Z M 54.617188 40.300781 " fill-opacity="1" fill-rule="nonzero"/></g></svg>