<svg xmlns="http://www.w3.org/2000/svg" xmlns:xlink="http://www.w3.org/1999/xlink" width="424" zoomAndPan="magnify" viewBox="0 0 318 99.749996" height="133" preserveAspectRatio="xMidYMid meet" version="1.0"><defs><g/><clipPath id="23667b76f2"><path d="M 0.398438 23.515625 L 62.492188 23.515625 L 62.492188 75.136719 L 0.398438 75.136719 Z M 0.398438 23.515625 " clip-rule="nonzero"/></clipPath></defs><g fill="#a004e3" fill-opacity="1"><g transform="translate(75.142162, 63.493005)"><g><path d="M 1.46875 -15.59375 C 1.46875 -18.65625 2.128906 -21.390625 3.453125 -23.796875 C 4.785156 -26.203125 6.640625 -28.078125 9.015625 -29.421875 C 11.390625 -30.765625 14.082031 -31.4375 17.09375 -31.4375 C 20.78125 -31.4375 23.9375 -30.460938 26.5625 -28.515625 C 29.195312 -26.566406 30.957031 -23.910156 31.84375 -20.546875 L 23.515625 -20.546875 C 22.890625 -21.847656 22.007812 -22.835938 20.875 -23.515625 C 19.738281 -24.191406 18.445312 -24.53125 17 -24.53125 C 14.664062 -24.53125 12.773438 -23.71875 11.328125 -22.09375 C 9.890625 -20.46875 9.171875 -18.300781 9.171875 -15.59375 C 9.171875 -12.875 9.890625 -10.703125 11.328125 -9.078125 C 12.773438 -7.453125 14.664062 -6.640625 17 -6.640625 C 18.445312 -6.640625 19.738281 -6.976562 20.875 -7.65625 C 22.007812 -8.332031 22.890625 -9.320312 23.515625 -10.625 L 31.84375 -10.625 C 30.957031 -7.257812 29.195312 -4.609375 26.5625 -2.671875 C 23.9375 -0.742188 20.78125 0.21875 17.09375 0.21875 C 14.082031 0.21875 11.390625 -0.453125 9.015625 -1.796875 C 6.640625 -3.140625 4.785156 -5.003906 3.453125 -7.390625 C 2.128906 -9.785156 1.46875 -12.519531 1.46875 -15.59375 Z M 1.46875 -15.59375 "/></g></g></g><g fill="#a004e3" fill-opacity="1"><g transform="translate(108.861393, 63.493005)"><g><path d="M 10.3125 -32.765625 L 10.3125 0 L 2.75 0 L 2.75 -32.765625 Z M 10.3125 -32.765625 "/></g></g></g><g fill="#a004e3" fill-opacity="1"><g transform="translate(121.915432, 63.493005)"><g><path d="M 14 0.359375 C 11.570312 0.359375 9.390625 -0.15625 7.453125 -1.1875 C 5.523438 -2.226562 4.003906 -3.707031 2.890625 -5.625 C 1.785156 -7.539062 1.234375 -9.785156 1.234375 -12.359375 C 1.234375 -14.890625 1.796875 -17.125 2.921875 -19.0625 C 4.046875 -21 5.582031 -22.484375 7.53125 -23.515625 C 9.476562 -24.546875 11.660156 -25.0625 14.078125 -25.0625 C 16.503906 -25.0625 18.691406 -24.546875 20.640625 -23.515625 C 22.585938 -22.484375 24.117188 -21 25.234375 -19.0625 C 26.359375 -17.125 26.921875 -14.890625 26.921875 -12.359375 C 26.921875 -9.816406 26.351562 -7.578125 25.21875 -5.640625 C 24.082031 -3.710938 22.53125 -2.226562 20.5625 -1.1875 C 18.601562 -0.15625 16.414062 0.359375 14 0.359375 Z M 14 -6.203125 C 15.4375 -6.203125 16.664062 -6.734375 17.6875 -7.796875 C 18.707031 -8.859375 19.21875 -10.378906 19.21875 -12.359375 C 19.21875 -14.335938 18.722656 -15.859375 17.734375 -16.921875 C 16.742188 -17.984375 15.523438 -18.515625 14.078125 -18.515625 C 12.609375 -18.515625 11.382812 -17.988281 10.40625 -16.9375 C 9.425781 -15.882812 8.9375 -14.359375 8.9375 -12.359375 C 8.9375 -10.378906 9.414062 -8.859375 10.375 -7.796875 C 11.34375 -6.734375 12.550781 -6.203125 14 -6.203125 Z M 14 -6.203125 "/></g></g></g><g fill="#a004e3" fill-opacity="1"><g transform="translate(150.103293, 63.493005)"><g><path d="M 27.140625 -24.703125 L 27.140625 0 L 19.578125 0 L 19.578125 -3.359375 C 18.804688 -2.273438 17.765625 -1.398438 16.453125 -0.734375 C 15.140625 -0.0664062 13.6875 0.265625 12.09375 0.265625 C 10.195312 0.265625 8.523438 -0.15625 7.078125 -1 C 5.640625 -1.84375 4.519531 -3.0625 3.71875 -4.65625 C 2.925781 -6.25 2.53125 -8.117188 2.53125 -10.265625 L 2.53125 -24.703125 L 10.046875 -24.703125 L 10.046875 -11.296875 C 10.046875 -9.640625 10.472656 -8.351562 11.328125 -7.4375 C 12.191406 -6.519531 13.347656 -6.0625 14.796875 -6.0625 C 16.265625 -6.0625 17.425781 -6.519531 18.28125 -7.4375 C 19.144531 -8.351562 19.578125 -9.640625 19.578125 -11.296875 L 19.578125 -24.703125 Z M 27.140625 -24.703125 "/></g></g></g><g fill="#a004e3" fill-opacity="1"><g transform="translate(179.928437, 63.493005)"><g><path d="M 1.234375 -12.40625 C 1.234375 -14.9375 1.710938 -17.160156 2.671875 -19.078125 C 3.640625 -21.003906 4.945312 -22.484375 6.59375 -23.515625 C 8.25 -24.546875 10.097656 -25.0625 12.140625 -25.0625 C 13.753906 -25.0625 15.234375 -24.722656 16.578125 -24.046875 C 17.921875 -23.367188 18.976562 -22.453125 19.75 -21.296875 L 19.75 -32.765625 L 27.328125 -32.765625 L 27.328125 0 L 19.75 0 L 19.75 -3.546875 C 19.039062 -2.359375 18.03125 -1.410156 16.71875 -0.703125 C 15.40625 0.00390625 13.878906 0.359375 12.140625 0.359375 C 10.097656 0.359375 8.25 -0.164062 6.59375 -1.21875 C 4.945312 -2.269531 3.640625 -3.757812 2.671875 -5.6875 C 1.710938 -7.625 1.234375 -9.863281 1.234375 -12.40625 Z M 19.75 -12.359375 C 19.75 -14.242188 19.222656 -15.734375 18.171875 -16.828125 C 17.128906 -17.921875 15.851562 -18.46875 14.34375 -18.46875 C 12.84375 -18.46875 11.566406 -17.925781 10.515625 -16.84375 C 9.460938 -15.769531 8.9375 -14.289062 8.9375 -12.40625 C 8.9375 -10.507812 9.460938 -9.007812 10.515625 -7.90625 C 11.566406 -6.800781 12.84375 -6.25 14.34375 -6.25 C 15.851562 -6.25 17.128906 -6.789062 18.171875 -7.875 C 19.222656 -8.96875 19.75 -10.460938 19.75 -12.359375 Z M 19.75 -12.359375 "/></g></g></g><g fill="#a004e3" fill-opacity="1"><g transform="translate(209.974844, 63.493005)"><g><path d="M 21.5625 -15.9375 C 23.363281 -15.550781 24.8125 -14.65625 25.90625 -13.25 C 27 -11.851562 27.546875 -10.253906 27.546875 -8.453125 C 27.546875 -5.859375 26.632812 -3.800781 24.8125 -2.28125 C 23 -0.757812 20.46875 0 17.21875 0 L 2.75 0 L 2.75 -31.078125 L 16.734375 -31.078125 C 19.890625 -31.078125 22.359375 -30.351562 24.140625 -28.90625 C 25.929688 -27.46875 26.828125 -25.507812 26.828125 -23.03125 C 26.828125 -21.195312 26.347656 -19.675781 25.390625 -18.46875 C 24.429688 -17.257812 23.15625 -16.414062 21.5625 -15.9375 Z M 10.3125 -18.515625 L 15.28125 -18.515625 C 16.519531 -18.515625 17.46875 -18.785156 18.125 -19.328125 C 18.789062 -19.867188 19.125 -20.671875 19.125 -21.734375 C 19.125 -22.804688 18.789062 -23.617188 18.125 -24.171875 C 17.46875 -24.734375 16.519531 -25.015625 15.28125 -25.015625 L 10.3125 -25.015625 Z M 15.890625 -6.109375 C 17.160156 -6.109375 18.140625 -6.394531 18.828125 -6.96875 C 19.523438 -7.550781 19.875 -8.382812 19.875 -9.46875 C 19.875 -10.5625 19.515625 -11.414062 18.796875 -12.03125 C 18.078125 -12.65625 17.082031 -12.96875 15.8125 -12.96875 L 10.3125 -12.96875 L 10.3125 -6.109375 Z M 15.890625 -6.109375 "/></g></g></g><g fill="#a004e3" fill-opacity="1"><g transform="translate(239.136221, 63.493005)"><g><path d="M 14 0.359375 C 11.570312 0.359375 9.390625 -0.15625 7.453125 -1.1875 C 5.523438 -2.226562 4.003906 -3.707031 2.890625 -5.625 C 1.785156 -7.539062 1.234375 -9.785156 1.234375 -12.359375 C 1.234375 -14.890625 1.796875 -17.125 2.921875 -19.0625 C 4.046875 -21 5.582031 -22.484375 7.53125 -23.515625 C 9.476562 -24.546875 11.660156 -25.0625 14.078125 -25.0625 C 16.503906 -25.0625 18.691406 -24.546875 20.640625 -23.515625 C 22.585938 -22.484375 24.117188 -21 25.234375 -19.0625 C 26.359375 -17.125 26.921875 -14.890625 26.921875 -12.359375 C 26.921875 -9.816406 26.351562 -7.578125 25.21875 -5.640625 C 24.082031 -3.710938 22.53125 -2.226562 20.5625 -1.1875 C 18.601562 -0.15625 16.414062 0.359375 14 0.359375 Z M 14 -6.203125 C 15.4375 -6.203125 16.664062 -6.734375 17.6875 -7.796875 C 18.707031 -8.859375 19.21875 -10.378906 19.21875 -12.359375 C 19.21875 -14.335938 18.722656 -15.859375 17.734375 -16.921875 C 16.742188 -17.984375 15.523438 -18.515625 14.078125 -18.515625 C 12.609375 -18.515625 11.382812 -17.988281 10.40625 -16.9375 C 9.425781 -15.882812 8.9375 -14.359375 8.9375 -12.359375 C 8.9375 -10.378906 9.414062 -8.859375 10.375 -7.796875 C 11.34375 -6.734375 12.550781 -6.203125 14 -6.203125 Z M 14 -6.203125 "/></g></g></g><g fill="#a004e3" fill-opacity="1"><g transform="translate(267.324083, 63.493005)"><g><path d="M 17.359375 0 L 12.625 -6.859375 L 8.640625 0 L 0.4375 0 L 8.59375 -12.625 L 0.21875 -24.703125 L 8.71875 -24.703125 L 13.46875 -17.890625 L 17.453125 -24.703125 L 25.640625 -24.703125 L 17.359375 -12.265625 L 25.859375 0 Z M 17.359375 0 "/></g></g></g><g clip-path="url(#23667b76f2)"><path fill="#a004e3" d="M 62.78125 33.648438 C 62.734375 33.308594 62.550781 33.070312 62.230469 32.9375 L 40.003906 23.648438 C 39.671875 23.515625 39.367188 23.558594 39.089844 23.78125 L 31.609375 29.828125 L 24.152344 23.78125 C 23.875 23.558594 23.570312 23.515625 23.242188 23.648438 L 0.988281 32.9375 C 0.839844 33 0.714844 33.09375 0.617188 33.21875 C 0.519531 33.347656 0.460938 33.492188 0.4375 33.648438 C 0.414062 33.808594 0.429688 33.964844 0.488281 34.113281 C 0.550781 34.261719 0.640625 34.386719 0.765625 34.488281 L 8.121094 40.441406 L 1.246094 49.433594 C 1.070312 49.664062 1.015625 49.921875 1.085938 50.203125 C 1.15625 50.488281 1.324219 50.691406 1.589844 50.8125 L 8.472656 53.96875 L 8.472656 64.398438 C 8.472656 64.789062 8.648438 65.066406 9.003906 65.230469 L 31.167969 75.429688 L 31.226562 75.457031 C 31.257812 75.472656 31.289062 75.484375 31.320312 75.492188 L 31.386719 75.511719 C 31.40625 75.515625 31.429688 75.515625 31.449219 75.511719 L 31.609375 75.511719 C 31.644531 75.515625 31.679688 75.515625 31.71875 75.511719 L 31.765625 75.511719 C 31.789062 75.515625 31.808594 75.515625 31.828125 75.511719 L 31.894531 75.492188 C 31.925781 75.484375 31.957031 75.472656 31.988281 75.457031 L 54.191406 65.238281 C 54.546875 65.074219 54.726562 64.796875 54.722656 64.40625 L 54.722656 53.96875 L 61.625 50.800781 C 61.75 50.742188 61.855469 50.660156 61.941406 50.554688 C 62.027344 50.449219 62.089844 50.332031 62.121094 50.199219 C 62.15625 50.066406 62.160156 49.933594 62.132812 49.796875 C 62.105469 49.664062 62.050781 49.542969 61.96875 49.433594 L 55.09375 40.457031 L 62.445312 34.488281 C 62.71875 34.273438 62.828125 33.992188 62.78125 33.648438 Z M 31.609375 49.511719 L 11.65625 40.332031 L 31.609375 31.992188 L 51.5625 40.332031 Z M 23.410156 25.542969 L 29.84375 30.75 L 28.820312 31.183594 L 9.535156 39.238281 L 3.101562 34.03125 Z M 3.386719 49.617188 L 8.472656 42.980469 L 9.664062 41.421875 L 10.296875 41.726562 L 30.1875 50.867188 L 23.914062 59.0625 L 10.296875 52.796875 L 8.472656 51.957031 Z M 10.296875 54.808594 L 23.808594 61.027344 C 23.929688 61.082031 24.058594 61.109375 24.191406 61.109375 C 24.492188 61.109375 24.734375 60.992188 24.917969 60.753906 L 30.695312 53.207031 L 30.695312 73.203125 L 10.296875 63.816406 Z M 52.917969 63.816406 L 32.519531 73.203125 L 32.519531 53.207031 L 38.300781 60.753906 C 38.480469 60.992188 38.722656 61.109375 39.023438 61.109375 C 39.15625 61.109375 39.28125 61.082031 39.402344 61.027344 L 52.917969 54.808594 Z M 59.824219 49.617188 L 54.742188 51.957031 L 52.917969 52.796875 L 39.304688 59.0625 L 33.023438 50.867188 L 53.546875 41.4375 L 54.742188 43 Z M 53.679688 39.238281 L 34.390625 31.183594 L 33.367188 30.757812 L 39.800781 25.542969 L 60.109375 34.03125 Z M 53.679688 39.238281 " fill-opacity="1" fill-rule="nonzero"/></g></svg>