<svg xmlns="http://www.w3.org/2000/svg" xmlns:xlink="http://www.w3.org/1999/xlink" width="512" zoomAndPan="magnify" viewBox="0 0 384 383.999986" height="512" preserveAspectRatio="xMidYMid meet" version="1.0"><path fill="#a004e3" d="M 21.015625 172.894531 L 250.269531 172.894531 L 250.269531 211.101562 L 21.015625 211.101562 Z M 21.015625 172.894531 " fill-opacity="1" fill-rule="evenodd"/><path fill="#a004e3" d="M 74.371094 111.625 L 7.503906 178.488281 C 0.0429688 185.949219 0.0429688 198.046875 7.503906 205.507812 L 74.371094 272.375 L 101.386719 245.355469 L 48.03125 192 L 101.386719 138.640625 Z M 74.371094 111.625 " fill-opacity="1" fill-rule="evenodd"/><path fill="#a004e3" d="M 116.539062 39.164062 C 116.539062 28.613281 125.089844 20.058594 135.640625 20.058594 L 364.894531 20.058594 C 375.445312 20.058594 384 28.613281 384 39.164062 L 384 344.835938 C 384 355.386719 375.445312 363.9375 364.894531 363.9375 L 135.640625 363.9375 C 125.089844 363.9375 116.539062 355.386719 116.539062 344.835938 L 116.539062 287.519531 L 154.746094 287.519531 L 154.746094 325.730469 L 345.792969 325.730469 L 345.792969 58.265625 L 154.746094 58.265625 L 154.746094 96.476562 L 116.539062 96.476562 Z M 116.539062 39.164062 " fill-opacity="1" fill-rule="evenodd"/></svg>